<svg width="184" height="36" fill="none" xmlns="http://www.w3.org/2000/svg"><path fill-rule="evenodd" clip-rule="evenodd" d="M9.438 4.78H8.031c-2.128 0-4.187 1.51-4.187 5.89 0 4.23 1.889 5.593 4.187 5.593h1.407V4.781zM7.242 18.62L3.054 28.701H0L4.6 17.92C2.436 16.741.994 14.607.994 10.67c0-5.52 3.261-8.281 7.14-8.281h3.947v26.314H9.438V18.62H7.242zm52.49.753c0-5.928 1.98-9.717 5.813-9.717 1.462 0 2.305.451 3.02.976l-.358 2.775c-.681-.675-1.656-1.313-2.694-1.313-1.82 0-3.118 2.364-3.118 7.128 0 4.726.974 7.427 3.02 7.427a3.833 3.833 0 002.76-1.163l.585 2.177c-.877.863-1.916 1.424-3.41 1.424-3.508 0-5.619-3.263-5.619-9.714zm-7.405.037v9.415H49.79V9.92h2.535v8.74l3.929-8.74h2.566l-4.06 8.89 4.645 10.016h-2.762l-4.318-9.415zm-11.92-1.763h4.189c0-3.226-.455-5.59-1.916-5.59-1.56 0-2.112 2.214-2.274 5.59zm2.792 11.44c-3.377 0-5.455-3.113-5.455-8.927 0-6.077 1.462-10.504 4.936-10.504 2.728 0 4.514 2.364 4.514 8.778v1.613h-6.82c0 4.277 1.039 6.528 3.053 6.528 1.429 0 2.566-.751 3.216-1.277l.584 2.252a5.906 5.906 0 01-4.027 1.538h-.001zM32.416 12.283h-2.824v.338c0 3.976-.163 9.791-1.527 13.804h4.352V12.282zm3.8 20.257h-2.273v-3.714h-7.016v3.714h-2.272v-6.114h1.006c1.495-4.014 1.657-9.866 1.657-14.893V9.92h7.6v16.505h1.3v6.115h-.002zM23.194 9.919v18.905h-2.5v-8.477h-3.768v8.478h-2.534V9.92h2.534v8.029h3.767v-8.03h2.501zm63.708-7.948h-7.063v26.922H78.18V.333h10.38v28.56h-1.659V1.97zM96.95 27.774c1.062 0 1.913-.764 2.555-2.295.64-1.532.961-3.895.961-7.09 0-2.665-.276-4.727-.83-6.193C99.085 10.732 98.323 10 97.349 10c-.376 0-.735.114-1.077.34a4.23 4.23 0 00-.962.899c-.298.373-.57.805-.812 1.298a12.047 12.047 0 00-.63 1.537v11.265c.33.826.74 1.438 1.226 1.837.487.4 1.107.6 1.858.6h-.001zm-.1 1.478a3.158 3.158 0 01-1.74-.5c-.488-.3-.913-.73-1.243-1.258v7.63h-1.559V8.762h1.36l.131 3.314a9.565 9.565 0 011.493-2.575c.62-.76 1.393-1.14 2.322-1.14.685 0 1.304.241 1.857.72.552.479 1.017 1.151 1.393 2.017.376.865.663 1.904.862 3.115.199 1.212.299 2.55.299 4.014 0 3.703-.476 6.465-1.427 8.29-.95 1.823-2.2 2.737-3.746 2.737l-.002-.002zm11.443-1.478c.773 0 1.432-.385 1.973-1.157.541-.774.967-1.705 1.276-2.797v-5.552h-1.791c-1.392 0-2.42.399-3.083 1.198-.663.798-.995 2.077-.995 3.835 0 1.438.237 2.542.712 3.315.476.773 1.111 1.158 1.907 1.158h.001zm3.714 1.119a19.205 19.205 0 01-.216-1.02 14.556 14.556 0 01-.183-1.696c-.397.958-.894 1.718-1.492 2.276-.596.56-1.315.84-2.155.84-1.127 0-2.046-.513-2.752-1.538-.708-1.025-1.062-2.457-1.062-4.294 0-2.157.476-3.789 1.426-4.893.95-1.105 2.332-1.658 4.146-1.658h1.823v-2.516c0-1.546-.231-2.664-.696-3.357-.464-.692-1.161-1.038-2.089-1.038a3.7 3.7 0 00-1.99.58c-.619.386-1.127.925-1.526 1.617l-.43-1.797c.331-.533.834-1.006 1.508-1.418.675-.413 1.487-.62 2.437-.62 1.393 0 2.46.473 3.201 1.418.742.946 1.111 2.417 1.111 4.415v10.984c0 .692.033 1.392.1 2.097.066.706.154 1.246.265 1.618h-1.426zm6.202 0h-1.56V8.76h1.56v9.467l5.604-9.465h1.525l-5.505 9.346 5.903 10.785h-1.724l-5.803-10.425v10.425zm13.497-18.574v18.574h-1.559V10.319h-3.88V8.76h9.287v1.56h-3.849.001zm14.028 4.555c0-.534.011-1.02.034-1.46.022-.438.055-.871.099-1.297h-.099a11.51 11.51 0 01-.398 1.297 95.58 95.58 0 01-.498 1.299l-5.439 14.18h-1.326V8.76h1.459v13.982a27.94 27.94 0 01-.132 2.836h.099c.11-.454.243-.9.398-1.338.155-.44.32-.886.497-1.338l5.439-14.142h1.36v20.133h-1.493v-14.02zm6.799 14.019h-1.559V8.76h1.559v9.467l5.604-9.465h1.526l-5.505 9.346 5.903 10.785h-1.725l-5.803-10.425v10.425zm9.783 6.39c-.176 0-.337-.006-.481-.02a2.7 2.7 0 01-.381-.06l-.166-1.756c.132.053.282.093.448.12.166.026.359.04.58.04.575 0 1.061-.313 1.459-.94.398-.626.719-1.497.962-2.615l.132-.6-4.145-20.69h1.559l2.653 13.14c.155.774.287 1.532.398 2.278.112.745.21 1.504.298 2.276h.1c.111-.798.232-1.571.365-2.316a79.39 79.39 0 01.431-2.237l2.587-13.141h1.393l-4.28 21.168a16.115 16.115 0 01-.513 1.997 7.727 7.727 0 01-.78 1.698c-.298.48-.67.887-1.095 1.198-.419.307-.928.46-1.525.46h.001zm12.57-20.61a14.669 14.669 0 01-.299-1.498 20.162 20.162 0 00-.265-1.457h-.132c.043.531.082 1.071.115 1.616.033.547.05 1.179.05 1.898v13.66h-1.327V8.76h1.825l2.918 12.304c.176.719.298 1.331.365 1.837.066.507.121 1.026.166 1.559h.132a22.97 22.97 0 01.182-1.56c.078-.505.204-1.116.381-1.836l2.985-12.302h1.791v20.132h-1.492V15.231a42.15 42.15 0 01.132-3.555h-.132l-.249 1.558a22.79 22.79 0 01-.281 1.437l-2.786 11.824h-1.294l-2.786-11.824.001.001z" fill="#FFF"/></svg>