<svg width="183" height="32" fill="none" xmlns="http://www.w3.org/2000/svg"><path fill-rule="evenodd" clip-rule="evenodd" d="M9.399 4.61H7.997c-2.119 0-4.17 1.35-4.17 5.268 0 3.787 1.881 5.006 4.17 5.006H9.4V4.61zM7.212 16.991l-4.17 9.023H0l4.58-9.65C2.427 15.312.99 13.403.99 9.879c0-4.94 3.248-7.41 7.11-7.41h3.931v23.547H9.4v-9.023H7.212zm52.268.674c0-5.304 1.973-8.694 5.79-8.694 1.455 0 2.294.403 3.006.874l-.356 2.482c-.678-.604-1.649-1.174-2.683-1.174-1.812 0-3.105 2.114-3.105 6.377 0 4.23.97 6.646 3.008 6.646 1.228 0 2.167-.503 2.748-1.04l.582 1.947c-.872.773-1.907 1.274-3.395 1.274-3.493 0-5.595-2.92-5.595-8.692zm-7.373.033v8.426h-2.525V9.207h2.523v7.821l3.913-7.82h2.555l-4.043 7.954 4.626 8.963h-2.75l-4.3-8.426zm-11.87-1.577h4.171c0-2.887-.453-5.001-1.907-5.001-1.553 0-2.103 1.98-2.265 5.001zm2.78 10.238c-3.363 0-5.432-2.787-5.432-7.99 0-5.437 1.456-9.398 4.916-9.398 2.716 0 4.495 2.115 4.495 7.854v1.444h-6.792c0 3.826 1.035 5.841 3.04 5.841 1.423 0 2.556-.672 3.203-1.142l.581 2.014c-1.034.84-2.393 1.377-4.01 1.377zM32.28 11.322h-2.813v.302c0 3.558-.162 8.761-1.52 12.352h4.334V11.322h-.001zm3.784 18.125H33.8v-3.322h-6.986v3.322h-2.263v-5.47h1.002c1.488-3.592 1.65-8.828 1.65-13.326V9.207h7.568v14.769h1.294v5.471zM23.095 9.207v16.916h-2.49V18.54h-3.75v7.586H14.33V9.207h2.523v7.184h3.751V9.207h2.49zm63.44-7.112h-7.033v24.09H77.85V.63h10.337v25.555h-1.652V2.095zm10.007 23.09c1.058 0 1.905-.685 2.544-2.055.638-1.37.957-3.485.957-6.345 0-2.383-.275-4.229-.826-5.54-.55-1.31-1.309-1.966-2.279-1.966a2.07 2.07 0 00-1.072.304 4.074 4.074 0 00-.958.804 6.25 6.25 0 00-.809 1.162c-.242.44-.452.9-.627 1.376v10.079c.33.74.738 1.287 1.22 1.644.486.357 1.103.536 1.851.536zm-.099 1.322a3.411 3.411 0 01-1.733-.447 3.701 3.701 0 01-1.238-1.126v6.827H91.92V8.17h1.353l.132 2.966a8.4 8.4 0 011.486-2.304c.617-.68 1.387-1.02 2.312-1.02.683 0 1.298.216 1.85.644.55.428 1.013 1.03 1.387 1.805.374.774.66 1.704.858 2.788.198 1.084.297 2.281.297 3.592 0 3.313-.473 5.784-1.42 7.416-.947 1.633-2.19 2.45-3.731 2.45l-.001-.001zm11.395-1.323c.769 0 1.425-.345 1.964-1.036.539-.692.963-1.525 1.271-2.502v-4.968h-1.784c-1.386 0-2.41.357-3.07 1.072-.66.714-.991 1.859-.991 3.431 0 1.287.237 2.275.71 2.966.473.692 1.106 1.037 1.899 1.037h.001zm3.698 1.001a14.86 14.86 0 01-.215-.912 11.52 11.52 0 01-.182-1.518c-.396.857-.891 1.537-1.487 2.037-.593.5-1.309.751-2.145.751-1.122 0-2.037-.46-2.741-1.376-.705-.918-1.058-2.198-1.058-3.843 0-1.93.475-3.39 1.421-4.378.946-.989 2.322-1.483 4.128-1.483h1.816v-2.252c0-1.383-.231-2.383-.694-3.003-.462-.62-1.155-.93-2.079-.93-.705 0-1.365.174-1.982.52a4.273 4.273 0 00-1.52 1.447l-.428-1.608c.329-.477.831-.9 1.502-1.269.671-.37 1.48-.555 2.427-.555 1.387 0 2.449.423 3.187 1.27.738.845 1.107 2.162 1.107 3.95v9.828c0 .62.032 1.246.099 1.876.065.632.153 1.115.263 1.448h-1.419zm6.175 0h-1.553V8.17h1.553v8.472l5.581-8.47h1.519l-5.482 8.363 5.878 9.65h-1.716l-5.78-9.328v9.328zm13.441-16.62v16.62h-1.553V9.565h-3.863V8.17h9.247v1.395h-3.832.001zm13.969 4.076a20.72 20.72 0 01.132-2.467h-.099a9.338 9.338 0 01-.396 1.16c-.162.39-.327.777-.495 1.163l-5.417 12.688h-1.32V8.17h1.453v12.512c.004.848-.04 1.695-.132 2.537h.099c.11-.406.242-.805.396-1.197.155-.393.319-.793.495-1.197l5.416-12.655h1.354v18.015h-1.486V13.641zm6.77 12.544h-1.552V8.17h1.552v8.472l5.581-8.47h1.52l-5.482 8.363 5.878 9.65h-1.718l-5.779-9.328v9.328zm9.742 5.719a5.81 5.81 0 01-.479-.018 2.96 2.96 0 01-.379-.054l-.166-1.572c.132.047.281.084.446.107.166.024.358.036.578.036.573 0 1.057-.28 1.453-.84.397-.56.716-1.34.958-2.341l.131-.536-4.127-18.515h1.552l2.642 11.76c.155.691.286 1.37.396 2.037a51.9 51.9 0 01.298 2.037h.099c.11-.714.231-1.406.364-2.073.131-.667.275-1.335.428-2.002l2.576-11.759h1.388l-4.262 18.942c-.131.62-.303 1.216-.512 1.787a6.584 6.584 0 01-.776 1.52c-.297.43-.667.793-1.09 1.072-.417.274-.924.41-1.519.41l.001.002zM174.15 13.46a12.121 12.121 0 01-.298-1.34 16.31 16.31 0 00-.264-1.303h-.131c.043.475.082.958.115 1.446.032.489.05 1.055.05 1.698v12.224H172.3V8.17h1.817l2.906 11.01c.176.643.297 1.19.364 1.643.065.454.12.919.164 1.395h.132c.044-.476.105-.94.182-1.395.077-.452.203-1 .379-1.643l2.972-11.009H183v18.015h-1.486V13.96a34.11 34.11 0 01.131-3.18h-.131c-.088.5-.171.965-.248 1.393a18.48 18.48 0 01-.28 1.286l-2.774 10.58h-1.288l-2.775-10.58.001.002z" fill="#000"/></svg>