<svg width="117" height="17" viewBox="0 0 117 17" fill="none" xmlns="http://www.w3.org/2000/svg">
<path d="M0.546875 16V14.291L2.06055 13.998V3.79297L0.546875 3.5V1.78125H4.95117L11.1426 11.6445L11.2012 11.6348V3.79297L9.38477 3.5V1.78125H15.2734V3.5L13.75 3.79297V16H10.9961L4.66797 6.23438L4.60938 6.24414V13.998L6.43555 14.291V16H0.546875ZM21.3379 16.2051C20.3223 16.2051 19.4368 15.9837 18.6816 15.541C17.9329 15.0918 17.3503 14.4766 16.9336 13.6953C16.5234 12.9141 16.3184 12.0221 16.3184 11.0195V10.6289C16.3184 9.58073 16.5137 8.65299 16.9043 7.8457C17.2949 7.0319 17.8451 6.39388 18.5547 5.93164C19.2708 5.46289 20.1139 5.23177 21.084 5.23828C22.5098 5.23828 23.6003 5.6582 24.3555 6.49805C25.1107 7.33138 25.4883 8.50326 25.4883 10.0137V11.5664H19.2773L19.2578 11.625C19.3099 12.3216 19.541 12.8945 19.9512 13.3438C20.3613 13.793 20.944 14.0176 21.6992 14.0176C22.2201 14.0176 22.7051 13.9525 23.1543 13.8223C23.61 13.6855 24.0527 13.487 24.4824 13.2266L25.2539 14.9844C24.8177 15.3359 24.2676 15.6289 23.6035 15.8633C22.946 16.0911 22.1908 16.2051 21.3379 16.2051ZM19.2969 9.68164H22.8223V9.42773C22.8223 8.78971 22.6888 8.28516 22.4219 7.91406C22.1615 7.53646 21.7318 7.34766 21.1328 7.34766C20.5599 7.34766 20.1237 7.56576 19.8242 8.00195C19.5247 8.43164 19.3392 8.97526 19.2676 9.63281L19.2969 9.68164ZM30.2637 16L27.8027 7.38672L26.5137 7.15234V5.43359H31.6211V7.14258L30.5078 7.35742L31.4844 11.4688L31.6797 12.2793H31.7383L32.002 11.4688L34.1699 5.43359H36.084L38.1836 11.5469L38.457 12.4062H38.5156L38.7695 11.5469L39.9219 7.36719L38.6914 7.14258V5.43359H43.6914V7.15234L42.4609 7.38672L39.7754 16H37.373L35.4395 10.7656L35.0977 9.60352H35.0391L34.6973 10.7754L32.793 16H30.2637ZM49.1309 16.2051C48.3431 16.2051 47.6074 16.1302 46.9238 15.9805C46.2467 15.8307 45.5957 15.6159 44.9707 15.3359L44.9414 12.3477H46.9238L47.3047 13.8711C47.526 13.9818 47.7669 14.0697 48.0273 14.1348C48.2943 14.1999 48.597 14.2324 48.9355 14.2324C49.5736 14.2324 50.0228 14.1283 50.2832 13.9199C50.5436 13.7116 50.6738 13.4512 50.6738 13.1387C50.6738 12.8457 50.5339 12.5885 50.2539 12.3672C49.974 12.1393 49.4238 11.9408 48.6035 11.7715C47.347 11.5111 46.4225 11.1074 45.8301 10.5605C45.2441 10.0137 44.9512 9.3138 44.9512 8.46094C44.9512 7.88151 45.0977 7.34766 45.3906 6.85938C45.6901 6.37109 46.1426 5.98372 46.748 5.69727C47.36 5.4043 48.1413 5.25781 49.0918 5.25781C49.8861 5.25781 50.612 5.33594 51.2695 5.49219C51.9336 5.64193 52.4902 5.84049 52.9395 6.08789L52.9688 8.97852H50.9961L50.6934 7.5918C50.3158 7.33138 49.8405 7.20117 49.2676 7.20117C48.7728 7.20117 48.3887 7.30534 48.1152 7.51367C47.8483 7.71549 47.7148 7.97266 47.7148 8.28516C47.7148 8.55859 47.832 8.80599 48.0664 9.02734C48.3073 9.24219 48.8314 9.44076 49.6387 9.62305C50.9473 9.92253 51.901 10.3229 52.5 10.8242C53.099 11.319 53.3984 12.0156 53.3984 12.9141C53.3984 13.8971 53.0404 14.6914 52.3242 15.2969C51.6146 15.9023 50.5501 16.2051 49.1309 16.2051ZM54.6289 16V14.291L56.1426 13.998V3.79297L54.6289 3.5V1.78125H65.9473V5.67773H63.7598L63.6328 3.97852H58.9941V7.89453H63.9746V10.0918H58.9941V13.998L60.5176 14.291V16H54.6289ZM66.9727 16V14.291L68.3496 13.998V7.44531L66.8262 7.15234V5.43359H71.2012V13.998L72.5684 14.291V16H66.9727ZM68.252 3.19727V0.765625H71.2012V3.19727H68.252ZM73.418 16V14.291L74.7852 13.998V7.44531L73.2715 7.15234V5.43359H77.4414L77.5684 6.94727C77.9199 6.4069 78.3529 5.98698 78.8672 5.6875C79.388 5.38802 79.9805 5.23828 80.6445 5.23828C81.6862 5.23828 82.5033 5.57357 83.0957 6.24414C83.6947 6.91471 83.9941 7.96615 83.9941 9.39844V13.998L85.3613 14.291V16H79.9121V14.291L81.1328 13.998V9.4082C81.1328 8.69857 80.9896 8.19727 80.7031 7.9043C80.4232 7.60482 80.0098 7.45508 79.4629 7.45508C78.6686 7.45508 78.0599 7.78711 77.6367 8.45117V13.998L78.7891 14.291V16H73.418ZM90.2441 16.2051C89.4043 16.2051 88.6816 15.9902 88.0762 15.5605C87.4772 15.1243 87.0182 14.5189 86.6992 13.7441C86.3802 12.9629 86.2207 12.0514 86.2207 11.0098V10.8047C86.2207 9.69141 86.3802 8.7181 86.6992 7.88477C87.0247 7.05143 87.487 6.40365 88.0859 5.94141C88.6849 5.47266 89.401 5.23828 90.2344 5.23828C90.8203 5.23828 91.3281 5.35547 91.7578 5.58984C92.194 5.81771 92.5716 6.14323 92.8906 6.56641V2.77734L91.3672 2.48438V0.765625H95.7422V13.998L97.1094 14.291V16H93.2715L93.0566 14.7109C92.7246 15.1992 92.3275 15.5703 91.8652 15.8242C91.403 16.0781 90.8626 16.2051 90.2441 16.2051ZM91.0938 13.9883C91.8815 13.9883 92.4805 13.6595 92.8906 13.002V8.51953C92.4805 7.8099 91.888 7.45508 91.1133 7.45508C90.3971 7.45508 89.8763 7.76432 89.5508 8.38281C89.2318 9.0013 89.0723 9.80859 89.0723 10.8047V11.0098C89.0723 11.9342 89.2285 12.6634 89.541 13.1973C89.8535 13.7246 90.3711 13.9883 91.0938 13.9883ZM103.076 16.2051C102.061 16.2051 101.175 15.9837 100.42 15.541C99.6712 15.0918 99.0885 14.4766 98.6719 13.6953C98.2617 12.9141 98.0566 12.0221 98.0566 11.0195V10.6289C98.0566 9.58073 98.252 8.65299 98.6426 7.8457C99.0332 7.0319 99.5833 6.39388 100.293 5.93164C101.009 5.46289 101.852 5.23177 102.822 5.23828C104.248 5.23828 105.339 5.6582 106.094 6.49805C106.849 7.33138 107.227 8.50326 107.227 10.0137V11.5664H101.016L100.996 11.625C101.048 12.3216 101.279 12.8945 101.689 13.3438C102.1 13.793 102.682 14.0176 103.438 14.0176C103.958 14.0176 104.443 13.9525 104.893 13.8223C105.348 13.6855 105.791 13.487 106.221 13.2266L106.992 14.9844C106.556 15.3359 106.006 15.6289 105.342 15.8633C104.684 16.0911 103.929 16.2051 103.076 16.2051ZM101.035 9.68164H104.561V9.42773C104.561 8.78971 104.427 8.28516 104.16 7.91406C103.9 7.53646 103.47 7.34766 102.871 7.34766C102.298 7.34766 101.862 7.56576 101.562 8.00195C101.263 8.43164 101.077 8.97526 101.006 9.63281L101.035 9.68164ZM108.76 16V14.291L110.127 13.998V7.44531L108.613 7.15234V5.43359H112.783L112.891 6.74219L112.91 6.97656C113.431 5.81771 114.212 5.23828 115.254 5.23828C115.423 5.23828 115.605 5.2513 115.801 5.27734C116.003 5.30339 116.185 5.34245 116.348 5.39453L116.045 8.02148L114.629 7.94336C114.225 7.92383 113.896 7.99219 113.643 8.14844C113.395 8.30469 113.174 8.5293 112.979 8.82227V13.998L114.346 14.291V16H108.76Z" fill="white"/>
</svg>
