<svg width="117" height="17" fill="none" xmlns="http://www.w3.org/2000/svg"><path d="M.547 16v-1.709l1.514-.293V3.793L.547 3.5V1.781H4.95l6.192 9.864.058-.01V3.793L9.385 3.5V1.781h5.888V3.5l-1.523.293V16h-2.754L4.668 6.234l-.059.01v7.754l1.827.293V16H.546zm20.79.205c-1.015 0-1.9-.221-2.655-.664a4.677 4.677 0 01-1.748-1.846c-.41-.78-.616-1.673-.616-2.675v-.391c0-1.048.196-1.976.586-2.783.39-.814.941-1.452 1.65-1.914.717-.47 1.56-.7 2.53-.694 1.426 0 2.516.42 3.271 1.26.756.833 1.133 2.005 1.133 3.516v1.552h-6.21l-.02.059c.052.697.283 1.27.693 1.719.41.449.993.674 1.748.674.521 0 1.006-.066 1.455-.196a5.744 5.744 0 001.328-.595l.772 1.757c-.436.352-.986.645-1.65.88-.658.227-1.413.341-2.266.341zm-2.04-6.523h3.525v-.254c0-.638-.133-1.143-.4-1.514-.26-.378-.69-.566-1.29-.566-.572 0-1.008.218-1.308.654-.3.43-.485.973-.556 1.63l.029.05zM30.264 16l-2.461-8.613-1.29-.235V5.434h5.108v1.709l-1.113.214.976 4.112.196.81h.058l.264-.81 2.168-6.035h1.914l2.1 6.113.273.86h.059l.254-.86 1.152-4.18-1.23-.224v-1.71h5v1.72l-1.231.234L39.775 16h-2.402l-1.933-5.234-.342-1.162h-.059l-.342 1.171L32.793 16h-2.53zm18.867.205c-.788 0-1.524-.075-2.207-.224a10.1 10.1 0 01-1.953-.645l-.03-2.988h1.983l.38 1.523c.222.11.463.199.723.264.267.065.57.097.908.097.639 0 1.088-.104 1.348-.312a.962.962 0 00.39-.781c0-.293-.14-.55-.42-.772-.279-.228-.83-.426-1.65-.596-1.256-.26-2.18-.664-2.773-1.21-.586-.547-.879-1.247-.879-2.1 0-.58.147-1.113.44-1.602.3-.488.752-.875 1.357-1.162.612-.293 1.393-.44 2.344-.44.794 0 1.52.079 2.178.235.664.15 1.22.348 1.67.596l.029 2.89h-1.973l-.303-1.386c-.377-.26-.852-.39-1.425-.39-.495 0-.88.103-1.153.312-.267.201-.4.459-.4.771 0 .274.117.521.351.742.241.215.765.414 1.573.596 1.308.3 2.262.7 2.861 1.201.599.495.898 1.192.898 2.09 0 .983-.358 1.777-1.074 2.383-.71.605-1.774.908-3.193.908zM54.629 16v-1.709l1.514-.293V3.793L54.629 3.5V1.781h11.318v3.897H63.76l-.127-1.7h-4.639v3.917h4.98v2.197h-4.98v3.906l1.524.293V16h-5.89zm12.344 0v-1.709l1.377-.293V7.445l-1.524-.293V5.434h4.375v8.564l1.367.293V16h-5.595zm1.279-12.803V.766h2.95v2.431h-2.95zM73.418 16v-1.709l1.367-.293V7.445l-1.513-.293V5.434h4.17l.126 1.513c.352-.54.785-.96 1.3-1.26.52-.299 1.113-.449 1.776-.449 1.042 0 1.86.336 2.452 1.006.599.67.898 1.722.898 3.154v4.6l1.367.293V16h-5.449v-1.709l1.22-.293v-4.59c0-.71-.142-1.21-.429-1.504-.28-.3-.693-.449-1.24-.449-.794 0-1.403.332-1.826.996v5.547l1.152.293V16h-5.371zm16.826.205c-.84 0-1.562-.215-2.168-.644-.599-.437-1.058-1.042-1.377-1.817-.319-.781-.478-1.693-.478-2.734v-.205c0-1.114.16-2.087.478-2.92.326-.834.788-1.481 1.387-1.944.599-.468 1.315-.703 2.148-.703.586 0 1.094.117 1.524.352.436.228.814.553 1.133.976V2.777l-1.524-.293V.766h4.375v13.232l1.367.293V16h-3.837l-.215-1.29c-.332.49-.73.86-1.192 1.114-.462.254-1.002.381-1.62.381zm.85-2.217c.788 0 1.387-.329 1.797-.986V8.52c-.41-.71-1.003-1.065-1.778-1.065-.716 0-1.237.31-1.562.928-.32.618-.479 1.426-.479 2.422v.205c0 .924.156 1.653.469 2.187.313.528.83.791 1.553.791zm11.982 2.217c-1.015 0-1.901-.221-2.656-.664a4.676 4.676 0 01-1.748-1.846c-.41-.78-.615-1.673-.615-2.675v-.391c0-1.048.195-1.976.586-2.783.39-.814.94-1.452 1.65-1.914.716-.47 1.559-.7 2.529-.694 1.426 0 2.517.42 3.272 1.26.755.833 1.133 2.005 1.133 3.516v1.552h-6.211l-.02.059c.052.697.283 1.27.693 1.719.411.449.993.674 1.749.674.52 0 1.005-.066 1.455-.196a5.763 5.763 0 001.328-.595l.771 1.757c-.436.352-.986.645-1.65.88-.658.227-1.413.341-2.266.341zm-2.041-6.523h3.526v-.254c0-.638-.134-1.143-.401-1.514-.26-.378-.69-.566-1.289-.566-.573 0-1.009.218-1.309.654-.299.43-.485.973-.556 1.63l.029.05zM108.76 16v-1.709l1.367-.293V7.445l-1.514-.293V5.434h4.17l.108 1.308.019.235c.521-1.16 1.302-1.739 2.344-1.739.169 0 .351.013.547.04.202.025.384.064.547.117l-.303 2.626-1.416-.078c-.404-.02-.733.05-.986.205a2.26 2.26 0 00-.664.674v5.176l1.367.293V16h-5.586z" fill="#fff"/></svg>